<svg width="296" height="40" viewBox="0 0 296 40" fill="none" xmlns="http://www.w3.org/2000/svg">
<mask id="mask0_145_1011" style="mask-type:luminance" maskUnits="userSpaceOnUse" x="0" y="0" width="296" height="40">
<path d="M295.419 0.905396H0.310059V40H295.419V0.905396Z" fill="white"/>
</mask>
<g mask="url(#mask0_145_1011)">
<mask id="mask1_145_1011" style="mask-type:luminance" maskUnits="userSpaceOnUse" x="3" y="1" width="287" height="39">
<path d="M3.81396 1.68506H289.986V39.4856H3.81396V1.68506Z" fill="white"/>
</mask>
<g mask="url(#mask1_145_1011)">
<path d="M239.381 8.41654C243.632 8.28593 247.86 8.08499 252.101 7.92424C260.605 7.6369 269.019 7.15666 277.475 6.75679C277.062 8.09504 276.672 9.48553 277.897 10.6369C277.897 10.6369 279.205 10.5324 280.826 10.3395C282.446 10.1587 284.394 9.94166 285.693 9.79498C296.679 11.7702 295.165 16.4139 290.343 20.1534C289.09 20.943 287.674 21.8332 286.063 22.7455C284.709 22.7635 283.352 22.7816 282.011 22.7997C275.9 22.9022 269.883 23.083 263.81 23.3985C257.774 23.6256 251.714 23.927 245.577 24.2646C233.319 24.8513 229.688 25.5164 216.436 25.6189C234.897 24.7267 197.846 25.438 216.436 25.6189C238.358 25.1447 202.723 26.5914 225.022 25.8399C230.604 25.6671 227.233 25.4943 232.78 25.3235C238.339 25.1989 243.875 25.0743 249.376 24.9518C254.9 24.8272 260.365 24.8151 265.846 24.7609C271.344 24.6825 276.773 24.7066 282.228 24.7388C278.117 26.6437 273.139 28.2572 267.1 28.7957C252.701 29.3764 238.501 29.9491 224.421 30.5178C224.356 29.8808 213.416 31.0422 203.743 31.424C194.073 31.7636 184.545 30.5921 174.956 30.7287C155.768 31.0422 117.568 34.7053 117.305 35.1273C117.064 35.497 117.246 35.7683 119.708 35.6618C117.246 35.7683 117.064 35.499 117.305 35.1273C156.21 32.8185 183.701 31.7214 222.82 30.5901C192.481 31.8399 171.767 33.3148 141.925 34.842C112.09 36.359 82.0853 37.8942 51.1359 39.0657C48.5024 39.1641 43.2224 39.3611 40.5824 39.4615C29.9185 37.9525 19.3162 37.6993 8.78871 38.071C11.2371 34.8138 0.332913 28.862 21.4951 29.3764C21.4562 28.7435 21.3847 27.4776 21.349 26.8466C10.6948 25.643 3.36258 22.8841 1.02457 20.0449C-0.050261 18.6323 0.0861232 17.1634 2.01498 15.8553C4.01852 14.5391 7.36642 13.3938 12.6107 12.574C36.1434 9.20623 67.8624 10.5565 96.6946 8.09102C117.691 6.59202 138.655 5.03274 159.743 5.29396C188.767 5.81037 211.237 3.52972 240.18 4.09636C245.428 4.04412 252.536 3.18812 259.021 2.55316C265.47 1.87599 271.224 1.33346 273.955 2.05885C277.79 2.63755 278.16 3.96374 277.822 5.50494C269.282 6.13991 260.787 6.86329 252.218 7.36563C247.941 7.63288 243.687 7.93429 239.417 8.16135C235.147 8.37836 230.886 8.59538 226.639 8.81038" fill="#285B77"/>
</g>
</g>
</svg>
