<svg width="80" height="92" viewBox="0 0 80 92" fill="none" xmlns="http://www.w3.org/2000/svg">
<path d="M55.0001 16.5C55.0001 25.0604 48.0605 32 39.5001 32C30.9397 32 24.0001 25.0604 24.0001 16.5C24.0001 7.93959 30.9397 1 39.5001 1C48.0605 1 55.0001 7.93959 55.0001 16.5Z" fill="white" fill-opacity="0.32"/>
<path d="M40.0001 82L2.76099 40.75H77.2392L40.0001 82Z" fill="#022E51" fill-opacity="0.5"/>
<path d="M17.0001 7H64.0001M24.0001 91H55.0001M55.0001 16.5C55.0001 25.0604 48.0605 32 39.5001 32C30.9397 32 24.0001 25.0604 24.0001 16.5C24.0001 7.93959 30.9397 1 39.5001 1C48.0605 1 55.0001 7.93959 55.0001 16.5ZM40.0001 82L2.76099 40.75H77.2392L40.0001 82Z" stroke="#022E51" stroke-width="2" stroke-linecap="round" stroke-dasharray="5 5"/>
</svg>
