<svg width="143" height="53" viewBox="0 0 143 53" fill="none" xmlns="http://www.w3.org/2000/svg">
<path fill-rule="evenodd" clip-rule="evenodd" d="M103.648 0.00722481C102.824 -0.0733769 102.09 0.529669 102.009 1.35417C101.929 2.17866 102.532 2.91239 103.356 2.99299C104.145 3.07008 104.819 3.20364 105.364 3.37136C106.013 3.57124 106.685 3.83119 107.359 4.15075C108.108 4.50537 109.003 4.18592 109.357 3.43723C109.712 2.68854 109.392 1.79413 108.644 1.43951C107.843 1.06026 107.037 0.747628 106.247 0.504237C105.475 0.266487 104.597 0.100015 103.648 0.00722481ZM99.0174 3.11629C99.8381 3.00398 100.412 2.24755 100.3 1.42678C100.188 0.605998 99.4314 0.0316742 98.6106 0.143989C97.0703 0.354769 95.4371 0.721348 93.7705 1.27276C92.984 1.53298 92.5574 2.38152 92.8176 3.16801C93.0779 3.95451 93.9264 4.38113 94.7129 4.12091C96.2023 3.62812 97.656 3.30258 99.0174 3.11629ZM90.6463 5.87823C91.3748 5.48371 91.6455 4.57335 91.2509 3.8449C90.8564 3.11645 89.9461 2.84574 89.2176 3.24027C87.8147 4.00007 86.4244 4.90824 85.0827 5.98225C84.4359 6.49994 84.3313 7.4439 84.849 8.09066C85.3667 8.73741 86.3106 8.84204 86.9574 8.32435C88.1538 7.3667 89.3939 6.55651 90.6463 5.87823ZM112.929 4.22809C112.303 3.68583 111.356 3.75395 110.813 4.38024C110.51 4.7305 110.398 5.18117 110.467 5.60523C109.653 5.66785 108.865 5.74701 108.122 5.84606C107.269 5.95982 106.362 6.10489 105.412 6.28156C104.598 6.43314 104.06 7.21625 104.212 8.03069C104.364 8.84513 105.147 9.3825 105.961 9.23092C106.863 9.06299 107.72 8.92625 108.518 8.81976C109.264 8.72039 110.074 8.64099 110.93 8.57902C111.502 8.53763 111.975 8.1809 112.193 7.69127C112.76 8.31352 113.272 8.98963 113.711 9.71693C114.139 10.4261 115.061 10.654 115.771 10.2259C116.405 9.84258 116.655 9.06347 116.393 8.39557C117.916 8.39004 119.431 8.4148 120.845 8.4551C121.673 8.47868 122.364 7.8265 122.387 6.99841C122.411 6.17032 121.759 5.4799 120.931 5.45631C119.326 5.41059 117.586 5.38426 115.841 5.39882C115.368 5.40276 114.948 5.62498 114.676 5.96901C114.129 5.33953 113.542 4.75908 112.929 4.22809ZM126.003 5.67323C125.176 5.62642 124.467 6.25896 124.421 7.08606C124.374 7.91317 125.006 8.62162 125.833 8.66844C126.6 8.71186 127.221 8.75201 127.65 8.78123C127.864 8.79585 128.03 8.80772 128.142 8.81591L128.269 8.82529L128.3 8.82769L128.308 8.82827L128.309 8.8284L128.31 8.82842L128.31 8.82843C129.136 8.89245 129.857 8.27482 129.921 7.44889C129.985 6.62295 129.368 5.90146 128.542 5.8374L128.426 7.33291L128.542 5.8374L128.542 5.83739L128.541 5.83737L128.541 5.83732L128.538 5.83713L128.529 5.83642L128.494 5.83378L128.361 5.8239C128.244 5.81537 128.073 5.80315 127.854 5.78819C127.415 5.75827 126.783 5.71738 126.003 5.67323ZM100.866 10.4017C101.665 10.1847 102.137 9.36071 101.92 8.5612C101.703 7.7617 100.879 7.28947 100.08 7.50645C98.3917 7.9646 96.6402 8.5054 94.8691 9.13157C94.088 9.4077 93.6787 10.2647 93.9549 11.0458C94.231 11.8268 95.088 12.2361 95.8691 11.96C97.5666 11.3599 99.2465 10.8411 100.866 10.4017ZM83.7592 11.39C84.3043 10.7661 84.2405 9.81853 83.6167 9.27343C82.9928 8.72833 82.0452 8.79215 81.5001 9.41598C80.9668 10.0263 80.4496 10.671 79.9513 11.3512C79.2949 12.2474 78.7432 13.1886 78.2819 14.1563C77.9254 14.9041 78.2427 15.7993 78.9905 16.1558C79.7383 16.5122 80.6335 16.195 80.99 15.4472C81.3764 14.6365 81.8337 13.8583 82.3716 13.1239C82.8188 12.5133 83.2822 11.9358 83.7592 11.39ZM91.0158 13.8949C91.772 13.5566 92.1107 12.6693 91.7724 11.9131C91.434 11.1569 90.5467 10.8182 89.7905 11.1566C88.128 11.9004 86.4815 12.7237 84.8885 13.6291C84.1683 14.0385 83.9163 14.9542 84.3257 15.6744C84.735 16.3946 85.6507 16.6466 86.3709 16.2372C87.8718 15.3842 89.4316 14.6038 91.0158 13.8949ZM118.138 13.0626C117.991 12.2474 117.21 11.706 116.395 11.8534C115.58 12.0008 115.039 12.7812 115.186 13.5964C115.306 14.2586 115.37 14.9527 115.37 15.679C115.37 16.4409 115.342 17.1897 115.288 17.9253C115.228 18.7515 115.849 19.4702 116.675 19.5306C117.501 19.5909 118.22 18.9701 118.28 18.1439C118.339 17.3362 118.37 16.5145 118.37 15.679C118.37 14.7741 118.29 13.9014 118.138 13.0626ZM82.0411 19.0443C82.7059 18.5501 82.8443 17.6105 82.3501 16.9456C81.8559 16.2808 80.9162 16.1424 80.2514 16.6366C79.1356 17.466 78.0709 18.3486 77.0761 19.286C76.9567 19.3707 76.8497 19.4726 76.7591 19.5889C76.515 19.8254 76.2754 20.0653 76.0406 20.3087C75.4653 20.9047 75.4821 21.8543 76.0782 22.4296C76.1213 22.4712 76.1662 22.5097 76.2127 22.545C76.1161 23.9269 76.1176 25.2751 76.1804 26.5453C76.2213 27.3728 76.9253 28.0103 77.7527 27.9694C78.5801 27.9285 79.2177 27.2245 79.1767 26.3971C79.0957 24.7587 79.1274 23.0129 79.3522 21.2654C80.1917 20.4904 81.0916 19.7501 82.0411 19.0443ZM117.565 23.0089C117.745 22.2003 117.235 21.3989 116.426 21.219C115.617 21.0392 114.816 21.5489 114.636 22.3576C114.303 23.857 113.867 25.2931 113.352 26.664C113.06 27.4395 113.453 28.3043 114.228 28.5957C115.004 28.8871 115.869 28.4947 116.16 27.7192C116.722 26.2242 117.199 24.6532 117.565 23.0089ZM75.124 26.3378C75.5533 25.6293 75.327 24.7069 74.6185 24.2776C73.91 23.8482 72.9876 24.0746 72.5583 24.7831C72.0686 25.5911 71.6308 26.4289 71.2522 27.2969L71.2465 27.3082C71.2299 27.3418 71.207 27.3889 71.1785 27.4487C71.1217 27.5683 71.0428 27.7392 70.9484 27.9565C70.7598 28.3909 70.5084 29.0128 70.2471 29.783C69.981 30.5675 70.4013 31.4192 71.1859 31.6853C71.9704 31.9514 72.8221 31.5311 73.0882 30.7466C73.3194 30.0648 73.54 29.5204 73.7001 29.1515C73.7802 28.9673 73.8449 28.8273 73.8881 28.7365C73.9097 28.6911 73.9258 28.658 73.9358 28.6378L73.946 28.6173L73.9463 28.6167L73.9465 28.6164L73.9466 28.6162L73.9468 28.6157L73.9472 28.615L73.9474 28.6145L73.9684 28.5737L73.9876 28.5293C74.3135 27.7782 74.6937 27.0478 75.124 26.3378ZM114.139 32.1808C114.528 31.4496 114.251 30.5412 113.52 30.1519C112.789 29.7626 111.88 30.0398 111.491 30.771C110.76 32.1439 109.962 33.4322 109.129 34.6327C108.657 35.3134 108.826 36.248 109.507 36.7201C110.188 37.1922 111.123 37.023 111.595 36.3423C112.488 35.0541 113.348 33.6659 114.139 32.1808ZM79.9037 32.0923C79.7385 31.2805 78.9465 30.7563 78.1347 30.9215C77.3229 31.0867 76.7987 31.8787 76.9639 32.6905C77.1527 33.6184 77.3388 34.3722 77.4789 34.898C77.549 35.161 77.6077 35.3674 77.6497 35.5104C77.6707 35.5819 77.6875 35.6376 77.6994 35.6767L77.7136 35.7227L77.7178 35.7362L77.7192 35.7405L77.7197 35.742L77.7198 35.7426L77.7199 35.7429C77.72 35.743 77.72 35.7432 79.1497 35.2893L77.72 35.7432C77.9707 36.5327 78.8139 36.9697 79.6035 36.719C80.3931 36.4684 80.83 35.6252 80.5795 34.8357C80.5794 34.8356 80.5794 34.8355 79.1497 35.2893L78.1347 30.9215L80.5794 34.8355L80.5777 34.8302L80.5684 34.7998C80.5597 34.7713 80.5461 34.7264 80.5285 34.6661C80.4931 34.5455 80.4411 34.3631 80.3778 34.1254C80.251 33.6498 80.0791 32.9545 79.9037 32.0923ZM72.0467 35.3421C72.1401 34.519 71.5485 33.776 70.7254 33.6826C69.9023 33.5892 69.1593 34.1807 69.0659 35.0039C68.8766 36.6717 68.8528 38.5219 69.1596 40.4346C69.2908 41.2526 70.0603 41.8093 70.8782 41.6781C71.6962 41.5469 72.2529 40.7774 72.1217 39.9594C71.8663 38.3667 71.8818 36.7957 72.0467 35.3421ZM108.61 40.1876C109.151 39.5605 109.082 38.6133 108.455 38.072C107.827 37.5307 106.88 37.6004 106.339 38.2275C105.263 39.4743 104.193 40.5765 103.194 41.5279C102.594 42.0991 102.57 43.0486 103.142 43.6485C103.713 44.2485 104.662 44.2718 105.262 43.7005C106.324 42.6895 107.463 41.5166 108.61 40.1876ZM71.5234 43.6328C70.7943 44.026 70.5219 44.9358 70.9151 45.665L74.8016 46.1395L74.8005 46.1381L74.8004 46.1379L74.798 46.1348C74.3115 45.5145 73.9007 44.8811 73.5556 44.2412C73.1625 43.512 72.2526 43.2396 71.5234 43.6328ZM74.8062 46.1455L74.8061 46.145L74.8067 46.146L74.6362 46.2771L74.6675 46.2527C74.8064 46.1458 74.8063 46.1456 74.8062 46.1455ZM72.4372 47.986L74.6362 46.2771L73.6682 47.0215C74.2419 46.5803 74.5264 46.3614 74.6675 46.2527L74.8061 46.145C74.8139 46.1547 74.8298 46.1739 74.8537 46.2016C74.9016 46.257 74.9817 46.3464 75.0947 46.4614C75.3208 46.6916 75.6768 47.0227 76.1676 47.3898C76.831 47.8859 76.9667 48.8259 76.4705 49.4894C75.9744 50.1528 75.0344 50.2884 74.371 49.7923C73.7448 49.3241 73.275 48.8899 72.9545 48.5636C72.7941 48.4004 72.6707 48.2637 72.5835 48.1627C72.5398 48.1122 72.5052 48.0705 72.4794 48.0389C72.4665 48.023 72.4558 48.0097 72.4474 47.999L72.4372 47.986ZM72.4372 47.986L72.4363 47.9849L72.432 47.9794L72.4302 47.977L72.4293 47.9759L72.4289 47.9754C72.4287 47.9751 72.4286 47.9749 73.6176 47.0604L72.4372 47.986ZM74.8061 46.145L74.8023 46.1404L74.8039 46.1425L74.8052 46.1441L74.8061 46.145ZM101.582 46.8741C102.236 46.3664 102.355 45.4241 101.848 44.7695C101.34 44.1149 100.398 43.9959 99.743 44.5036C99.1804 44.94 98.726 45.2682 98.4161 45.4849C98.2611 45.5932 98.1424 45.6736 98.0645 45.7256L98.024 45.7525L97.9905 45.7745C97.3412 46.1355 96.7073 46.4681 96.0888 46.7742C95.3463 47.1417 95.0423 48.0415 95.4098 48.784C95.7772 49.5264 96.677 49.8304 97.4195 49.463C98.097 49.1277 98.7886 48.7641 99.4946 48.3707L99.5336 48.349L99.5712 48.325L98.7644 47.0604C99.5712 48.325 99.5713 48.3249 99.5714 48.3249L99.5716 48.3247L99.5721 48.3244L99.5733 48.3237L99.5764 48.3216L99.5859 48.3155L99.6174 48.2951C99.6439 48.2778 99.6813 48.2532 99.7291 48.2214C99.8246 48.1577 99.9614 48.065 100.135 47.9436C100.482 47.7009 100.977 47.3433 101.582 46.8741ZM93.1004 51.3014C93.8815 51.0253 94.2908 50.1683 94.0146 49.3872C93.7385 48.6062 92.8815 48.1968 92.1004 48.473C90.612 48.9992 89.2338 49.3597 87.9625 49.5892C87.1473 49.7364 86.6057 50.5166 86.7529 51.3319C86.9001 52.1471 87.6803 52.6887 88.4956 52.5415C89.9347 52.2816 91.4689 51.8782 93.1004 51.3014ZM79.7432 49.2156C78.955 48.9605 78.1093 49.3926 77.8542 50.1808C77.5991 50.9689 78.0312 51.8147 78.8194 52.0698C80.2061 52.5186 81.8211 52.8376 83.6709 52.9063C84.4988 52.937 85.1948 52.2908 85.2256 51.463C85.2563 50.6351 84.6101 49.9391 83.7823 49.9083C82.2155 49.8502 80.8737 49.5815 79.7432 49.2156ZM130.089 2.67169C129.676 2.3054 129.044 2.34354 128.677 2.75687C128.311 3.17021 128.349 3.80223 128.763 4.16852C130.15 5.39818 131.126 6.37682 131.75 7.04199C131.868 7.16739 131.973 7.28165 132.067 7.38437C131.762 7.69703 131.376 8.09042 130.975 8.49685C130.495 8.98211 129.996 9.48374 129.587 9.8879C129.382 10.0902 129.202 10.2657 129.06 10.4014C128.988 10.4693 128.929 10.5251 128.881 10.5682C128.858 10.5897 128.839 10.6067 128.824 10.6197L128.807 10.6346C128.802 10.6383 128.8 10.6399 128.8 10.6399C128.369 10.9853 128.3 11.6147 128.646 12.0456C128.991 12.4765 129.62 12.5458 130.051 12.2003C130.227 12.0595 130.597 11.7016 130.992 11.3112C131.41 10.8985 131.916 10.3901 132.398 9.90209C132.88 9.41378 133.34 8.94367 133.668 8.60674C133.831 8.43872 133.963 8.30195 134.049 8.21212C134.09 8.16947 134.127 8.12994 134.152 8.10212C134.159 8.09499 134.169 8.08357 134.18 8.07058C134.185 8.06439 134.195 8.05274 134.207 8.03809L134.208 8.03751C134.212 8.03131 134.249 7.98542 134.286 7.92347C134.298 7.90319 134.324 7.85233 134.339 7.8214C134.359 7.77185 134.402 7.6309 134.418 7.53857C134.423 7.39356 134.33 7.06386 134.19 6.81731C134.206 6.80464 134.206 6.80459 134.206 6.80455L134.205 6.80422L134.205 6.80346L134.203 6.80153L134.199 6.79604L134.185 6.77854C134.173 6.764 134.157 6.74373 134.136 6.71786C134.094 6.66611 134.032 6.59194 133.95 6.49633C133.787 6.3051 133.542 6.02813 133.209 5.67322C132.542 4.96339 131.523 3.94202 130.089 2.67169ZM30.1978 20.1271V26.0456H32.3018V30.4201H22.9473V20.0969C22.9473 19.6629 22.806 19.2795 22.5234 18.9465C22.2409 18.6135 21.9028 18.447 21.5093 18.447C20.7726 18.447 20.3084 18.8153 20.1167 19.5519C19.9149 20.3088 19.814 21.3683 19.814 22.7307V30.4201H12.5483V20.0969C12.5483 19.6629 12.4071 19.2795 12.1245 18.9465C11.8521 18.6135 11.519 18.447 11.1255 18.447C10.3888 18.447 9.92464 18.8153 9.73291 19.5519C9.53109 20.3088 9.43018 21.3683 9.43018 22.7307V26.0456H9.46045V30.4201H0V26.0456H2.19482V18.8859H0V14.799L9.43018 13.8908V16.1613C10.1265 15.3338 10.9186 14.7486 11.8066 14.4055C12.6947 14.0624 13.6987 13.8908 14.8188 13.8908C17.1095 13.8908 18.6081 14.8646 19.3145 16.8122C20.0612 15.7526 20.9189 15.0008 21.8877 14.5568C22.8564 14.1128 23.9614 13.8908 25.2026 13.8908C28.5327 13.8908 30.1978 15.9696 30.1978 20.1271ZM49.2183 13.8041V30.4201H46.9863L46.5833 28.2191H46.4593C46.108 28.7978 45.6533 29.2731 45.0953 29.6451C44.5373 30.0171 43.9276 30.2858 43.2663 30.4511C42.605 30.6371 41.9126 30.7301 41.1893 30.7301C39.8666 30.7301 38.7506 30.5234 37.8413 30.1101C36.9526 29.6761 36.281 29.0148 35.8263 28.1261C35.3716 27.2374 35.1443 26.0904 35.1443 24.6851V13.8041H37.9033V24.4991C37.9033 25.8218 38.203 26.8138 38.8023 27.4751C39.4016 28.1364 40.3316 28.4671 41.5923 28.4671C42.8323 28.4671 43.8036 28.2398 44.5063 27.7851C45.2296 27.3098 45.736 26.6278 46.0253 25.7391C46.3353 24.8298 46.4903 23.7344 46.4903 22.4531V13.8041H49.2183ZM37.9343 9.3091C37.9343 8.77177 38.079 8.38944 38.3683 8.1621C38.6576 7.9141 38.9986 7.7901 39.3913 7.7901C39.784 7.7901 40.125 7.9141 40.4143 8.1621C40.7036 8.38944 40.8483 8.77177 40.8483 9.3091C40.8483 9.82577 40.7036 10.2184 40.4143 10.4871C40.125 10.7351 39.784 10.8591 39.3913 10.8591C38.9986 10.8591 38.6576 10.7351 38.3683 10.4871C38.079 10.2184 37.9343 9.82577 37.9343 9.3091ZM43.7623 9.3091C43.7623 8.77177 43.8966 8.38944 44.1653 8.1621C44.4546 7.9141 44.7956 7.7901 45.1883 7.7901C45.581 7.7901 45.922 7.9141 46.2113 8.1621C46.5006 8.38944 46.6453 8.77177 46.6453 9.3091C46.6453 9.82577 46.5006 10.2184 46.2113 10.4871C45.922 10.7351 45.581 10.8591 45.1883 10.8591C44.7956 10.8591 44.4546 10.7351 44.1653 10.4871C43.8966 10.2184 43.7623 9.82577 43.7623 9.3091ZM71.6118 18.8859L66.8589 30.4201H59.1392L54.0835 18.8859H51.8584V14.2087H63.4834V18.8859H61.8032L64.437 26.5148L67.3584 18.8859H65.436V14.2087H73.6553V18.8859H71.6118ZM140.814 26.0456V20.1271C140.814 15.9696 139.149 13.8908 135.819 13.8908C134.699 13.8908 133.695 14.0624 132.807 14.4055C131.919 14.7486 131.126 15.3338 130.43 16.1613V13.8908L121 14.799V18.8859H123.195V26.0456H121V30.4201H130.46V26.0456H130.43V22.7307C130.43 21.3683 130.531 20.3088 130.733 19.5519C130.925 18.8153 131.389 18.447 132.125 18.447C132.519 18.447 132.852 18.6135 133.125 18.9465C133.407 19.2795 133.548 19.6629 133.548 20.0969V30.4201H142.918V26.0456H140.814Z" fill="#022E51"/>
</svg>
